<svg width="40" height="40" viewBox="0 0 40 40" fill="none" xmlns="http://www.w3.org/2000/svg">
<path d="M9.02246 12.4355H30.9771V32.1715C30.9771 32.5395 30.6785 32.8382 30.3105 32.8382H9.68913C9.32113 32.8382 9.02246 32.5395 9.02246 32.1715V12.4355Z" fill="#BBBDC3"/>
<path d="M32.7119 18.209L7.28658 18.209V13.101C7.28658 12.733 7.58525 12.4343 7.95325 12.4343L32.0452 12.4343C32.4132 12.4343 32.7119 12.733 32.7119 13.101V18.209Z" fill="#BBBDC3"/>
<path d="M21.9883 18.2102V12.4355H18.0149V18.2102H21.9883Z" fill="#18181A"/>
<path d="M21.9863 32.8372V19.5332H18.013V32.8372H21.9863Z" fill="#18181A"/>
<path d="M18.0131 18.209H9.02246V19.533H18.0131V18.209Z" fill="#7E808A"/>
<path d="M30.977 18.209H21.9863V19.533H30.977V18.209Z" fill="#7E808A"/>
<path d="M21.987 18.209H18.0137V19.533H21.987V18.209Z" fill="#BBBDC3"/>
<path d="M20 9.79811V12.4341H15.9293C14.4747 12.4341 13.2933 11.2528 13.2933 9.79811C13.2933 8.34344 14.4747 7.16211 15.9293 7.16211H17.3627C18.8173 7.16211 19.9987 8.34344 19.9987 9.79811H20Z" fill="#18181A"/>
<path d="M26.707 9.79811C26.707 11.2528 25.5257 12.4341 24.071 12.4341H20.0004V9.79811C20.0004 8.34344 21.1817 7.16211 22.6364 7.16211H24.0697C25.5244 7.16211 26.7057 8.34344 26.7057 9.79811H26.707Z" fill="#18181A"/>
</svg>
